<svg width="24" height="22" viewBox="0 0 24 22" fill="none" xmlns="http://www.w3.org/2000/svg">
<path fill-rule="evenodd" clip-rule="evenodd" d="M0 2C0 0.895431 0.895431 0 2 0H22C23.1046 0 24 0.895431 24 2C24 3.10457 23.1046 4 22 4H2C0.89543 4 0 3.10457 0 2ZM0 11C0 9.89543 0.895431 9 2 9H22C23.1046 9 24 9.89543 24 11C24 12.1046 23.1046 13 22 13H2C0.89543 13 0 12.1046 0 11ZM2 18C0.895431 18 0 18.8954 0 20C0 21.1046 0.89543 22 2 22H22C23.1046 22 24 21.1046 24 20C24 18.8954 23.1046 18 22 18H2Z" fill="#999999"/>
</svg>
